<?xml version="1.0" encoding="utf-8"?>
<!-- Generator: Adobe Illustrator 24.0.2, SVG Export Plug-In . SVG Version: 6.00 Build 0)  -->
<svg version="1.1" id="Layer_1" xmlns="http://www.w3.org/2000/svg" xmlns:xlink="http://www.w3.org/1999/xlink" x="0px" y="0px"
	 viewBox="0 0 608 179.9" style="enable-background:new 0 0 608 179.9;" xml:space="preserve">
<style type="text/css">
	.st0{fill:#00313C;}
	.st1{fill:#00C65E;}
</style>
<g>
	<rect x="367.3" y="57.3" class="st0" width="26.6" height="121.3"/>
	<g>
		<path class="st0" d="M380.6,1.4C370.3,1.4,362,9.7,362,20s8.3,18.6,18.6,18.6c10.3,0,18.6-8.3,18.6-18.6S390.9,1.4,380.6,1.4"/>
		<path class="st0" d="M546.5,152c-18.8,0-34-15.2-34-34c0-18.8,15.2-34,34-34c18.8,0,34,15.2,34,34
			C580.5,136.7,565.3,152,546.5,152 M580.6,57.3v10.5c-9.7-6.6-21.5-10.5-34.1-10.5c-33.5,0-60.6,27.1-60.6,60.6
			s27.1,60.6,60.6,60.6c12.7,0,24.4-3.9,34.1-10.5v10.5h26.5V57.3H580.6z"/>
		<path class="st0" d="M438.9,73.9V57.3h-26.2v121.3h26.2V118c0-20.6,16.7-34.2,37.3-34.2c2.3,0,4.6,0.2,6.7,0.6V57.9
			C482.9,57.9,458,52.7,438.9,73.9"/>
	</g>
	<polygon class="st0" points="315.2,1.4 248.2,76.7 234.4,76.7 234.4,1.4 205.8,1.4 205.8,178.6 234.4,178.6 234.4,103.3 
		248.8,103.3 319.2,178.6 358.1,178.6 275.2,90 354,1.4 	"/>
</g>
<g>
	<path class="st1" d="M28.6,90c0-28.2,19.5-51.9,45.7-58.3V2.5C32.2,9.3,0,45.9,0,90s32.2,80.6,74.3,87.5v-29.2
		C48.1,141.8,28.6,118.2,28.6,90"/>
	<path class="st1" d="M177.2,90c0-44.1-32.2-80.6-74.3-87.5v29.2c26.2,6.4,45.7,30.1,45.7,58.3s-19.5,51.9-45.7,58.3v29.2
		C145,170.6,177.2,134,177.2,90"/>
</g>
</svg>